HIERARCHY
ROOT Hips
{
	OFFSET -3.958830 18.904000 13.208200
	CHANNELS 6 Xposition Yposition Zposition Zrotation Yrotation Xrotation 
	JOINT LHipJoint
	{
		OFFSET 0.000000 0.000000 0.000000
		CHANNELS 3 Zrotation Yrotation Xrotation
		JOINT LeftUpLeg
		{
			OFFSET 1.800000 -1.400000 0.085000
			CHANNELS 3 Zrotation Yrotation Xrotation
			JOINT LeftLeg
			{
				OFFSET 2.215000 -6.000000 0.000000
				CHANNELS 3 Zrotation Yrotation Xrotation
				JOINT LeftFoot
				{
					OFFSET 2.500000 -6.900000 0.000000
					CHANNELS 3 Zrotation Yrotation Xrotation
					JOINT LeftToeBase
					{
						OFFSET 0.200000 -0.500000 1.950000
						CHANNELS 3 Zrotation Yrotation Xrotation
						End Site
						{
							OFFSET 0.000000 0.000000 0.000000
						}
					}
				}
			}
		}
	}
	JOINT RHipJoint
	{
		OFFSET 0.000000 0.000000 0.000000
		CHANNELS 3 Zrotation Yrotation Xrotation
		JOINT RightUpLeg
		{
			OFFSET -1.800000 -1.400000 0.085000
			CHANNELS 3 Zrotation Yrotation Xrotation
			JOINT RightLeg
			{
				OFFSET -2.215000 -6.000000 0.000000
				CHANNELS 3 Zrotation Yrotation Xrotation
				JOINT RightFoot
				{
					OFFSET -2.500000 -6.900000 0.000000
					CHANNELS 3 Zrotation Yrotation Xrotation
					JOINT RightToeBase
					{
						OFFSET -0.200000 -0.500000 1.950000
						CHANNELS 3 Zrotation Yrotation Xrotation
						End Site
						{
							OFFSET 0.000000 0.000000 0.000000
						}
					}
				}
			}
		}
	}
	JOINT LowerBack
	{
		OFFSET 0.000000 0.000000 0.000000
		CHANNELS 3 Zrotation Yrotation Xrotation
		JOINT Spine
		{
			OFFSET -0.087000 1.940000 -0.288900
			CHANNELS 3 Zrotation Yrotation Xrotation
			JOINT Spine1
			{
				OFFSET 0.000000 1.950000 0.060000
				CHANNELS 3 Zrotation Yrotation Xrotation
				JOINT Neck
				{
					OFFSET 0.000000 0.000000 0.000000
					CHANNELS 3 Zrotation Yrotation Xrotation
					JOINT Neck1
					{
						OFFSET 0.000000 1.600000 0.340000
						CHANNELS 3 Zrotation Yrotation Xrotation
						JOINT Head
						{
							OFFSET 0.000000 1.667000 -0.240000
							CHANNELS 3 Zrotation Yrotation Xrotation
							End Site
							{
								OFFSET 0.000000 0.000000 0.000000
							}
						}
					}
				}
				JOINT LeftShoulder
				{
					OFFSET 0.000000 0.000000 0.000000
					CHANNELS 3 Zrotation Yrotation Xrotation
					JOINT LeftArm
					{
						OFFSET 2.700000 1.550000 -0.730000
						CHANNELS 3 Zrotation Yrotation Xrotation
						JOINT LeftForeArm
						{
							OFFSET 5.450000 0.000000 0.000000
							CHANNELS 3 Zrotation Yrotation Xrotation
							JOINT LeftHand
							{
								OFFSET 3.450000 0.000000 0.000000
								CHANNELS 3 Zrotation Yrotation Xrotation
								JOINT LeftHandIndex1
								{
									OFFSET 0.750000 0.000000 0.000000
									CHANNELS 3 Zrotation Yrotation Xrotation
									End Site
									{
										OFFSET 0.000000 0.000000 0.000000
									}
								}
							}
						}
					}
				}
				JOINT RightShoulder
				{
					OFFSET 0.000000 0.000000 0.000000
					CHANNELS 3 Zrotation Yrotation Xrotation
					JOINT RightArm
					{
						OFFSET -2.700000 1.550000 -0.730000
						CHANNELS 3 Zrotation Yrotation Xrotation
						JOINT RightForeArm
						{
							OFFSET -5.450000 0.000000 0.000000
							CHANNELS 3 Zrotation Yrotation Xrotation
							JOINT RightHand
							{
								OFFSET -3.450000 0.000000 0.000000
								CHANNELS 3 Zrotation Yrotation Xrotation
								JOINT RightHandIndex1
								{
									OFFSET -0.750000 0.000000 0.000000
									CHANNELS 3 Zrotation Yrotation Xrotation
									End Site
									{
										OFFSET 0.000000 0.000000 0.000000
									}
								}
							}
						}
					}
				}
			}
		}
	}
}
MOTION
Frames: 4
Frame Time: 0.016667
-0.858200 16.526460 -1.233370 -3.591993 -6.663804 3.117122 -15.409624 11.192954 4.392862 24.510071 -1.149223 -27.328756 -25.457100 18.751899 29.024341 0.551953 10.088797 1.399468 0.282600 -0.141290 -0.145260 18.437931 -9.435402 2.766775 -14.285287 6.033862 -29.582806 15.460968 -13.986183 39.653948 -0.607704 -7.731096 1.985150 0.057480 0.983960 0.360500 -3.557758 -0.897030 -7.819195 4.904997 1.148899 5.316936 -0.243043 1.171290 3.859067 -0.204742 -2.198732 -6.658839 -3.597235 2.200986 22.022426 0.159010 -1.625940 4.641040 -22.100294 -4.416947 2.537571 -51.248026 -2.694756 -4.113995 -35.128702 -26.324877 4.811333 -4.216852 3.396208 0.079950 0.698280 -0.623860 0.486920 22.766376 7.273408 3.163356 52.853878 4.947197 -5.644909 29.059073 26.712908 3.033110 1.827869 -1.951064 -0.263070 0.238540 0.071010 -0.017900 
-0.857600 16.562190 -1.237500 -3.790100 -6.702010 2.939609 -15.396330 11.284893 4.295210 23.987688 -1.185267 -27.013036 -24.477521 18.225479 28.897287 0.526160 9.865566 1.469498 0.288910 -0.133220 -0.125260 18.426361 -9.504784 2.792090 -13.981422 6.056854 -29.259186 15.646053 -13.888436 39.293365 -0.606274 -7.661676 2.013030 0.049890 0.957420 0.352230 -3.549984 -0.883654 -7.794506 4.693906 1.275271 5.438382 -0.064661 1.285839 3.919713 -0.186623 -2.040953 -6.758412 -3.385824 1.885149 22.464488 0.063210 -1.693790 4.747740 -21.987867 -4.572652 2.674173 -51.358824 -2.639130 -4.247238 -35.521380 -26.789307 5.034630 -4.192055 3.397305 0.079370 0.681360 -0.607540 0.484550 22.636473 7.399582 3.226070 53.020022 5.008317 -5.707944 28.809301 26.822093 3.003611 1.846768 -1.946947 -0.250370 0.228770 0.051080 -0.019060 
-0.858090 16.631760 -1.251420 -4.423392 -6.716942 2.606573 -15.355955 11.446712 4.132565 23.203411 -1.233380 -26.626993 -22.441862 17.217763 28.853491 0.453859 9.448848 1.586749 0.309980 -0.106970 -0.097120 18.419792 -9.638108 2.847453 -13.173952 6.135367 -28.532148 16.129846 -13.726433 38.450813 -0.620700 -7.514863 2.070941 0.039300 0.902900 0.348230 -3.581730 -0.839926 -7.781767 4.901140 1.392851 5.920875 -0.234815 1.450847 4.023912 -0.058620 -1.847698 -7.078691 -3.174979 1.498301 23.400179 0.121560 -1.795310 4.344350 -21.787715 -5.224937 3.010891 -51.168812 -2.454075 -4.590154 -36.303051 -27.588455 5.391276 -4.132326 3.399513 0.106980 0.640260 -0.559330 0.487380 22.165099 7.980779 3.506852 53.943244 5.161390 -6.004604 27.968242 26.994617 2.833382 1.869843 -1.924879 -0.226010 0.212320 0.019540 -0.021490 
-0.862120 16.714380 -1.274420 -5.151924 -6.872604 2.309983 -15.311266 11.641973 3.897066 22.120577 -1.250003 -26.237868 -19.734501 15.917114 28.748684 0.328514 8.914447 1.744901 0.308040 -0.116580 -0.076130 18.415070 -9.745640 2.983255 -12.372396 6.465283 -28.172844 17.002338 -13.924881 38.335636 -0.667004 -7.534892 2.066081 0.018130 0.860020 0.334000 -3.620442 -0.832681 -7.781601 5.124039 1.571895 6.548045 -0.290698 1.712876 4.039234 -0.042679 -1.890207 -7.434291 -3.382954 1.229407 24.399649 0.222640 -1.983080 3.989550 -21.538635 -5.871151 3.337977 -50.983895 -2.287090 -4.917574 -37.315330 -28.636609 5.862105 -4.084298 3.386147 0.147190 0.598710 -0.527030 0.473020 21.868248 8.751422 3.867077 54.472517 5.248318 -6.331731 27.335283 27.262139 2.735816 1.885909 -1.888770 -0.224440 0.209440 0.013600 -0.035190 
